<?xml version="1.0" standalone="no"?><!DOCTYPE svg PUBLIC "-//W3C//DTD SVG 1.1//EN" "http://www.w3.org/Graphics/SVG/1.1/DTD/svg11.dtd"><svg t="1696163821066" class="icon" viewBox="0 0 1024 1024" version="1.1" xmlns="http://www.w3.org/2000/svg" p-id="7966" data-spm-anchor-id="a313x.search_index.0.i1.4e7d3a81zjZwSi" xmlns:xlink="http://www.w3.org/1999/xlink" width="200" height="200"><path d="M628.2 672.6h-231c-13.2 0-24-10.7-24-24s10.7-24 24-24h231c13.2 0 24 10.7 24 24s-10.7 24-24 24z" fill="#2c2c2c" opacity=".4" p-id="7967"></path><path d="M628.2 538.6h-231c-13.2 0-24-10.7-24-24s10.7-24 24-24h231c13.2 0 24 10.7 24 24s-10.7 24-24 24z" fill="#2c2c2c" opacity=".4" p-id="7968"></path><path d="M485.4 405h-88.2c-13.2 0-24-10.7-24-24s10.7-24 24-24h88.2c13.2 0 24 10.7 24 24s-10.8 24-24 24z" fill="#2c2c2c" opacity=".4" p-id="7969"></path><path d="M381.2 830.8c-4.3 0-9-0.2-13.6-0.6-42.6-3.6-81.3-23.6-108.9-56.2-27.6-32.7-40.8-74.2-37.2-116.7l-0.1-292.4c-0.6-5.4-0.7-12.9-0.3-20.4 4.9-88.1 81-156.2 168.6-151h244c7.7-0.4 15.4-0.3 23 0.3 42.6 3.6 81.2 23.7 108.8 56.4 27.6 32.7 40.7 74.2 37.1 116.9l0.1 292.3c0.5 5.4 0.6 12.7 0.2 20.1-2.3 42.7-21.2 81.9-53 110.4s-72.9 42.8-115.6 40.6H389.6c-2.6 0.2-5.4 0.3-8.4 0.3z m0.8-589.6c-60.2 0-109.6 46.3-112.9 105.9-0.3 5.2-0.2 10.5 0.2 15.7l0.1 296.4c-5.3 63.6 40.6 118 102.2 123.1 5.5 0.4 11 0.5 16.4 0.2l247.6-0.1c31.2 1.6 60-8.4 82.2-28.4 22.3-20 35.5-47.4 37.1-77.3 0.3-5.2 0.2-10.3-0.2-15.5l-0.1-296.4c2.6-31.9-6.6-61-25.9-83.9-19.3-22.9-46.4-36.9-76.2-39.5-5.6-0.5-11.1-0.6-16.7-0.2H388.3c-2.1 0.1-4.2 0-6.3 0z" fill="#2c2c2c" p-id="7970"></path></svg>