<?xml version="1.0" standalone="no"?><!DOCTYPE svg PUBLIC "-//W3C//DTD SVG 1.1//EN" "http://www.w3.org/Graphics/SVG/1.1/DTD/svg11.dtd"><svg t="1696207655181" class="icon" viewBox="0 0 1024 1024" version="1.1" xmlns="http://www.w3.org/2000/svg" p-id="18204" xmlns:xlink="http://www.w3.org/1999/xlink" width="200" height="200"><path d="M736.2 215.8h-451C130.6 215.8 0 351.5 0 512c0 160.6 130.6 296.2 285.3 296.2h266.3c18.7 0 33.8-15.1 33.8-33.8 0-18.7-15.1-33.8-33.8-33.8H285.3c-118 0-217.7-104.7-217.7-228.6s99.7-228.6 217.7-228.6h450.6c120.9 1.3 219.8 100.6 220.6 221.7 1.3 120.2-95.5 219.3-215.7 221-18.7 0.3-33.6 15.6-33.3 34.2 0.3 18.7 15.3 32.9 34.2 33.3 157.3-2.2 283.9-131.9 282.3-289.1-1-157.5-129.9-287-287.8-288.7z" fill="#2c2c2c" p-id="18205"></path><path d="M589.3 426.7c-43.9 0-79.6 35.7-79.6 79.6 0 43.9 35.7 79.6 79.6 79.6 43.9 0 79.6-35.7 79.6-79.6 0-44-35.7-79.6-79.6-79.6z m0 105c-14.1 0-25.5-11.5-25.5-25.5 0-14.1 11.5-25.5 25.5-25.5 14.1 0 25.5 11.5 25.5 25.5 0 14.1-11.4 25.5-25.5 25.5zM782.8 585.8c43.9 0 79.5-35.7 79.5-79.6 0-43.9-35.7-79.6-79.6-79.6s-79.6 35.7-79.6 79.6c0.1 43.9 35.8 79.6 79.7 79.6z m0-105.1c14.1 0 25.5 11.5 25.5 25.5 0 14.1-11.5 25.5-25.5 25.5s-25.5-11.5-25.5-25.5c0-14.1 11.4-25.5 25.5-25.5zM290.9 611.4c18.7 0 33.8-15.1 33.8-33.8v-35h35c18.7 0 33.8-15.1 33.8-33.8 0-18.7-15.1-33.8-33.8-33.8h-35v-35c0-18.7-15.1-33.8-33.8-33.8-18.7 0-33.8 15.1-33.8 33.8v35h-35c-18.7 0-33.8 15.1-33.8 33.8 0 18.7 15.1 33.8 33.8 33.8h35v35c0 18.6 15.2 33.8 33.8 33.8z" fill="#2c2c2c" p-id="18206"></path></svg>